<?xml version="1.0" encoding="UTF-8"?>
<svg id="logosandtypes_com" data-name="logosandtypes com" xmlns="http://www.w3.org/2000/svg" viewBox="0 0 150 150">
  <defs>
    <style>
      .cls-1 {
        fill: none;
      }

      .cls-2 {
        fill: #7856ff;
      }
    </style>
  </defs>
  <g id="Layer_3" data-name="Layer 3">
    <g id="Layer_2" data-name="Layer 2">
      <path id="Layer_3-2" data-name="Layer 3" class="cls-1" d="M0,0H150V150H0V0Z"/>
    </g>
  </g>
  <path class="cls-2" d="M49,64.97h16.35c-4.09-2.57-5.62-6.14-7.67-12.78l-6.14-22.75c-2.8-10.24-5.11-15.08-16.35-15.08H11.68v6.14h3.34c6.89,0,7.67,2.57,9.72,10.24l5.36,19.96c2.8,9.69,7.18,14.28,18.89,14.28h0Z"/>
  <path class="cls-2" d="M86.86,64.97h16.35c11.77,0,15.83-4.61,18.66-14.31l5.36-19.96c2.05-7.67,3.06-10.24,9.72-10.24h3.34v-6.14h-23.27c-11.51,0-13.81,4.61-16.38,15.08l-6.14,22.75c-2.02,6.89-3.58,10.24-7.65,12.8Z"/>
  <rect class="cls-2" x="65.37" y="64.94" width="21.48" height="21.48"/>
  <path class="cls-2" d="M11.68,137.06h23.51c11.25,0,13.55-4.87,16.35-15.08l6.14-22.75c2.05-6.63,3.58-10.24,7.67-12.78h-16.35c-11.77,0-16.12,4.61-18.92,14.31l-5.36,19.96c-2.05,7.67-2.8,10.24-9.72,10.24h-3.34l.03,6.12h0Z"/>
  <path class="cls-2" d="M117,137.06h23.27v-6.14h-3.34c-6.63,0-7.67-2.57-9.72-10.24l-5.36-19.96c-2.8-9.72-6.89-14.31-18.66-14.31h-16.33c4.09,2.57,5.57,5.88,7.62,12.78l6.14,22.75c2.57,10.5,4.87,15.11,16.38,15.11h0Z"/>
</svg>